<svg width="129" height="8" viewBox="0 0 129 8" fill="none" xmlns="http://www.w3.org/2000/svg">
<path d="M0.646822 4.35355C0.451561 4.15829 0.451561 3.84171 0.646822 3.64645L3.8288 0.464466C4.02407 0.269204 4.34065 0.269204 4.53591 0.464466C4.73117 0.659728 4.73117 0.976311 4.53591 1.17157L1.70748 4L4.53591 6.82843C4.73117 7.02369 4.73117 7.34027 4.53591 7.53553C4.34065 7.7308 4.02407 7.7308 3.8288 7.53553L0.646822 4.35355ZM19.4619 4.5L1.00038 4.5V3.5L19.4619 3.5V4.5Z" fill="#9A9A9A"/>
<path d="M128.277 4.35355C128.472 4.15829 128.472 3.84171 128.277 3.64645L125.095 0.464466C124.9 0.269204 124.583 0.269204 124.388 0.464466C124.193 0.659728 124.193 0.976311 124.388 1.17157L127.216 4L124.388 6.82843C124.193 7.02369 124.193 7.34027 124.388 7.53553C124.583 7.7308 124.9 7.7308 125.095 7.53553L128.277 4.35355ZM109.462 4.5L127.923 4.5V3.5L109.462 3.5V4.5Z" fill="#4C4C4C"/>
</svg>
