<svg width="40" height="40" viewBox="0 0 40 40" fill="none" xmlns="http://www.w3.org/2000/svg">
<path d="M11.015 3.355C13.5137 1.20034 16.7006 0.0103463 20 0C26.725 0 32.3075 5 32.915 11.4475C36.895 12.01 40 15.3425 40 19.4325C40 23.9225 36.255 27.5 31.7175 27.5H25C24.6685 27.5 24.3505 27.3683 24.1161 27.1339C23.8817 26.8995 23.75 26.5815 23.75 26.25C23.75 25.9185 23.8817 25.6005 24.1161 25.3661C24.3505 25.1317 24.6685 25 25 25H31.72C34.9475 25 37.5 22.47 37.5 19.4325C37.5 16.3925 34.95 13.8625 31.7175 13.8625H30.4675V12.6125C30.47 7.0625 25.82 2.5 20 2.5C17.2997 2.51079 14.6921 3.48608 12.6475 5.25C10.755 6.88 9.765 8.845 9.765 10.3875V11.5075L8.6525 11.63C5.16 12.0125 2.5 14.88 2.5 18.295C2.5 21.9625 5.575 25 9.4525 25H15C15.3315 25 15.6495 25.1317 15.8839 25.3661C16.1183 25.6005 16.25 25.9185 16.25 26.25C16.25 26.5815 16.1183 26.8995 15.8839 27.1339C15.6495 27.3683 15.3315 27.5 15 27.5H9.4525C4.27 27.5 0 23.415 0 18.295C0 13.8875 3.165 10.2375 7.355 9.3125C7.7125 7.155 9.1 5.005 11.015 3.355Z" fill="#F0887C"/>
<path d="M19.1146 39.635C19.2307 39.7514 19.3687 39.8438 19.5205 39.9068C19.6724 39.9698 19.8352 40.0022 19.9996 40.0022C20.164 40.0022 20.3268 39.9698 20.4787 39.9068C20.6306 39.8438 20.7685 39.7514 20.8846 39.635L28.3846 32.135C28.6193 31.9003 28.7512 31.5819 28.7512 31.25C28.7512 30.9181 28.6193 30.5997 28.3846 30.365C28.1499 30.1303 27.8316 29.9984 27.4996 29.9984C27.1677 29.9984 26.8493 30.1303 26.6146 30.365L21.2496 35.7325V13.75C21.2496 13.4185 21.1179 13.1005 20.8835 12.8661C20.6491 12.6317 20.3311 12.5 19.9996 12.5C19.6681 12.5 19.3502 12.6317 19.1157 12.8661C18.8813 13.1005 18.7496 13.4185 18.7496 13.75V35.7325L13.3846 30.365C13.1499 30.1303 12.8316 29.9984 12.4996 29.9984C12.1677 29.9984 11.8493 30.1303 11.6146 30.365C11.3799 30.5997 11.248 30.9181 11.248 31.25C11.248 31.5819 11.3799 31.9003 11.6146 32.135L19.1146 39.635Z" fill="#F0887C"/>
</svg>
