<svg width="24" height="24" viewBox="0 0 24 24" fill="none" xmlns="http://www.w3.org/2000/svg">
<path fill-rule="evenodd" clip-rule="evenodd" d="M9.17006 8.56182C9.37539 8.37717 9.69153 8.39394 9.87618 8.59927C10.0608 8.8046 10.0441 9.12073 9.83873 9.30538L7.15558 11.7183L14.3413 11.7183C14.6175 11.7183 14.8413 11.9421 14.8413 12.2183C14.8413 12.4944 14.6175 12.7183 14.3413 12.7183L7.3144 12.7183L9.83873 14.9883C10.0441 15.173 10.0608 15.4891 9.87618 15.6944C9.69153 15.8998 9.37539 15.9165 9.17006 15.7319L5.59689 12.5186L5.18347 12.1468L5.59689 11.7751L9.17006 8.56182Z" fill="#222222"/>
<path fill-rule="evenodd" clip-rule="evenodd" d="M12.4094 4.64844C10.7314 4.64844 9.18914 5.2235 7.96692 6.18764C7.75011 6.35867 7.43571 6.32156 7.26469 6.10475C7.09366 5.88795 7.13077 5.57355 7.34758 5.40252C8.73992 4.30417 10.4988 3.64844 12.4094 3.64844C16.9266 3.64844 20.5885 7.31035 20.5885 11.8275C20.5885 16.3447 16.9266 20.0067 12.4094 20.0067C10.4988 20.0067 8.73992 19.3509 7.34758 18.2526C7.13077 18.0815 7.09366 17.7671 7.26469 17.5503C7.43571 17.3335 7.75011 17.2964 7.96692 17.4674C9.18914 18.4316 10.7314 19.0067 12.4094 19.0067C16.3743 19.0067 19.5885 15.7925 19.5885 11.8275C19.5885 7.86263 16.3743 4.64844 12.4094 4.64844Z" fill="#222222"/>
</svg>
