<svg width="25" height="24" viewBox="0 0 25 24" fill="none" xmlns="http://www.w3.org/2000/svg">
<path fill-rule="evenodd" clip-rule="evenodd" d="M9.50014 15.5C9.50014 15.3674 9.55282 15.2402 9.64659 15.1464C9.74036 15.0527 9.86754 15 10.0001 15H19.0001C19.1328 15 19.2599 15.0527 19.3537 15.1464C19.4475 15.2402 19.5001 15.3674 19.5001 15.5C19.5001 15.6326 19.4475 15.7598 19.3537 15.8535C19.2599 15.9473 19.1328 16 19.0001 16H10.0001C9.86754 16 9.74036 15.9473 9.64659 15.8535C9.55282 15.7598 9.50014 15.6326 9.50014 15.5ZM9.50014 11.5C9.50014 11.3674 9.55282 11.2402 9.64659 11.1464C9.74036 11.0527 9.86754 11 10.0001 11H19.0001C19.1328 11 19.2599 11.0527 19.3537 11.1464C19.4475 11.2402 19.5001 11.3674 19.5001 11.5C19.5001 11.6326 19.4475 11.7598 19.3537 11.8535C19.2599 11.9473 19.1328 12 19.0001 12H10.0001C9.86754 12 9.74036 11.9473 9.64659 11.8535C9.55282 11.7598 9.50014 11.6326 9.50014 11.5ZM9.50014 7.49998C9.50014 7.36737 9.55282 7.24019 9.64659 7.14643C9.74036 7.05266 9.86754 6.99998 10.0001 6.99998H19.0001C19.1328 6.99998 19.2599 7.05266 19.3537 7.14643C19.4475 7.24019 19.5001 7.36737 19.5001 7.49998C19.5001 7.63259 19.4475 7.75976 19.3537 7.85353C19.2599 7.9473 19.1328 7.99998 19.0001 7.99998H10.0001C9.86754 7.99998 9.74036 7.9473 9.64659 7.85353C9.55282 7.75976 9.50014 7.63259 9.50014 7.49998ZM8.35414 6.14598C8.40071 6.19242 8.43765 6.2476 8.46286 6.30834C8.48806 6.36909 8.50104 6.43421 8.50104 6.49998C8.50104 6.56575 8.48806 6.63087 8.46286 6.69161C8.43765 6.75236 8.40071 6.80753 8.35414 6.85398L6.85414 8.35398C6.8077 8.40054 6.75252 8.43748 6.69178 8.46269C6.63103 8.4879 6.56591 8.50087 6.50014 8.50087C6.43438 8.50087 6.36925 8.4879 6.30851 8.46269C6.24776 8.43748 6.19259 8.40054 6.14614 8.35398L5.64614 7.85398C5.59966 7.80749 5.56278 7.7523 5.53762 7.69156C5.51246 7.63082 5.49951 7.56572 5.49951 7.49998C5.49951 7.43423 5.51246 7.36913 5.53762 7.30839C5.56278 7.24766 5.59966 7.19247 5.64614 7.14598C5.69263 7.09949 5.74782 7.06261 5.80856 7.03746C5.8693 7.0123 5.9344 6.99935 6.00014 6.99935C6.06589 6.99935 6.13099 7.0123 6.19173 7.03746C6.25247 7.06261 6.30766 7.09949 6.35414 7.14598L6.50014 7.29298L7.64614 6.14598C7.69259 6.09941 7.74776 6.06247 7.80851 6.03727C7.86925 6.01206 7.93438 5.99908 8.00014 5.99908C8.06591 5.99908 8.13103 6.01206 8.19178 6.03727C8.25252 6.06247 8.3077 6.09941 8.35414 6.14598ZM8.35414 10.146C8.40071 10.1924 8.43765 10.2476 8.46286 10.3083C8.48806 10.3691 8.50104 10.4342 8.50104 10.5C8.50104 10.5657 8.48806 10.6309 8.46286 10.6916C8.43765 10.7524 8.40071 10.8075 8.35414 10.854L6.85414 12.354C6.8077 12.4005 6.75252 12.4375 6.69178 12.4627C6.63103 12.4879 6.56591 12.5009 6.50014 12.5009C6.43438 12.5009 6.36925 12.4879 6.30851 12.4627C6.24776 12.4375 6.19259 12.4005 6.14614 12.354L5.64614 11.854C5.55226 11.7601 5.49951 11.6328 5.49951 11.5C5.49951 11.3672 5.55226 11.2399 5.64614 11.146C5.74003 11.0521 5.86737 10.9993 6.00014 10.9993C6.13292 10.9993 6.26026 11.0521 6.35414 11.146L6.50014 11.293L7.64614 10.146C7.69259 10.0994 7.74776 10.0625 7.80851 10.0373C7.86925 10.0121 7.93438 9.99908 8.00014 9.99908C8.06591 9.99908 8.13103 10.0121 8.19178 10.0373C8.25252 10.0625 8.3077 10.0994 8.35414 10.146ZM8.35414 14.146C8.40071 14.1924 8.43765 14.2476 8.46286 14.3083C8.48806 14.3691 8.50104 14.4342 8.50104 14.5C8.50104 14.5657 8.48806 14.6309 8.46286 14.6916C8.43765 14.7524 8.40071 14.8075 8.35414 14.854L6.85414 16.354C6.8077 16.4005 6.75252 16.4375 6.69178 16.4627C6.63103 16.4879 6.56591 16.5009 6.50014 16.5009C6.43438 16.5009 6.36925 16.4879 6.30851 16.4627C6.24776 16.4375 6.19259 16.4005 6.14614 16.354L5.64614 15.854C5.55226 15.7601 5.49951 15.6328 5.49951 15.5C5.49951 15.3672 5.55226 15.2399 5.64614 15.146C5.74003 15.0521 5.86737 14.9993 6.00014 14.9993C6.13292 14.9993 6.26026 15.0521 6.35414 15.146L6.50014 15.293L7.64614 14.146C7.69259 14.0994 7.74776 14.0625 7.80851 14.0373C7.86925 14.0121 7.93438 13.9991 8.00014 13.9991C8.06591 13.9991 8.13103 14.0121 8.19178 14.0373C8.25252 14.0625 8.3077 14.0994 8.35414 14.146Z" fill="#CCAB1F"/>
</svg>
